# xmcd CD database file
#
# Track frame offsets:
#	150
#	19502
#	43497
#	62850
#	83775
#	111220
#	130992
#	158460
#	168987
#	182160
#	190717
#	210745
#
# Disc length: 3219 seconds
#
# Revision: 0
# Processed by: cddbd v1.5.2PL0 Copyright (c) Steve Scherf et al.
# Submitted via: CDex 1.70beta2
#
DISCID=9f0c910c
DTITLE=ALK Yew-goh - The Impermanence of Dew
DYEAR=1994
DGENRE=New Age
TTITLE0=Stories Of A Small Town
TTITLE1=How Many Girl Friends
TTITLE2=Taste
TTITLE3=Where The Dream Begins
TTITLE4=The Moon Mirrored On Two Streams
TTITLE5=Thoughts Of Zen
TTITLE6=Miss You
TTITLE7=Piano Suite-Image of China
TTITLE8=Piano Suite-Image of China
TTITLE9=Piano Suite-Image of China
TTITLE10=Sequoias In Autumn
TTITLE11=Tree
EXTD=YEAR: 1994
EXTT0=
EXTT1=
EXTT2=
EXTT3=
EXTT4=
EXTT5=
EXTT6=
EXTT7=
EXTT8=
EXTT9=
EXTT10=
EXTT11=
PLAYORDER=
